<svg width="50" height="50" viewBox="0 0 50 50" fill="none" xmlns="http://www.w3.org/2000/svg">
<rect width="50" height="50" rx="25" fill="white" fill-opacity="0.2"/>
<g clip-path="url(#clip0_1153_26435)">
<path d="M18.4999 30.0001C19.3283 30.0001 19.9999 29.3285 19.9999 28.5001C19.9999 27.6717 19.3283 27.0001 18.4999 27.0001C17.6715 27.0001 16.9999 27.6717 16.9999 28.5001C16.9999 29.3285 17.6715 30.0001 18.4999 30.0001Z" fill="white"/>
<path d="M34 16H16C15.2044 16 14.4413 16.3161 13.8787 16.8787C13.3161 17.4413 13 18.2044 13 19V34H37V19C37 18.2044 36.6839 17.4413 36.1213 16.8787C35.5587 16.3161 34.7956 16 34 16ZM16 18H34C34.2652 18 34.5196 18.1054 34.7071 18.2929C34.8946 18.4804 35 18.7348 35 19V21H15V19C15 18.7348 15.1054 18.4804 15.2929 18.2929C15.4804 18.1054 15.7348 18 16 18ZM15 32V23H35V32H15Z" fill="white"/>
</g>
<defs>
<clipPath id="clip0_1153_26435">
<rect width="24" height="24" fill="white" transform="translate(13 13)"/>
</clipPath>
</defs>
</svg>
