<svg width="52" height="50" viewBox="0 0 52 50" fill="none" xmlns="http://www.w3.org/2000/svg">
<path d="M51 25C51 11.1929 39.8071 0 26 0C12.1929 0 1 11.1929 1 25C1 38.8071 12.1929 50 26 50C39.8071 50 51 38.8071 51 25Z" fill="#FE5F14" fill-opacity="0.25"/>
<mask id="mask0_114_243" style="mask-type:luminance" maskUnits="userSpaceOnUse" x="14" y="13" width="24" height="24">
<path d="M38 13H14V37H38V13Z" fill="white"/>
</mask>
<g mask="url(#mask0_114_243)">
<path d="M19.5 30.0002C20.3284 30.0002 21 29.3287 21 28.5002C21 27.6718 20.3284 27.0002 19.5 27.0002C18.6716 27.0002 18 27.6718 18 28.5002C18 29.3287 18.6716 30.0002 19.5 30.0002Z" fill="#D54401"/>
<path d="M35 16H17C16.2044 16 15.4413 16.3161 14.8787 16.8787C14.3161 17.4413 14 18.2044 14 19V34H38V19C38 18.2044 37.6839 17.4413 37.1213 16.8787C36.5587 16.3161 35.7956 16 35 16ZM17 18H35C35.2652 18 35.5196 18.1054 35.7071 18.2929C35.8946 18.4804 36 18.7348 36 19V21H16V19C16 18.7348 16.1054 18.4804 16.2929 18.2929C16.4804 18.1054 16.7348 18 17 18ZM16 32V23H36V32H16Z" fill="#D54401"/>
</g>
</svg>
