<svg width="50" height="50" viewBox="0 0 50 50" fill="none" xmlns="http://www.w3.org/2000/svg">
<rect width="50" height="50" rx="25" fill="white" fill-opacity="0.2"/>
<g clip-path="url(#clip0_1153_26459)">
<path d="M34 15H31V13H29V15H21V13H19V15H16C15.2044 15 14.4413 15.3161 13.8787 15.8787C13.3161 16.4413 13 17.2044 13 18V37H37V18C37 17.2044 36.6839 16.4413 36.1213 15.8787C35.5587 15.3161 34.7956 15 34 15ZM15 18C15 17.7348 15.1054 17.4804 15.2929 17.2929C15.4804 17.1054 15.7348 17 16 17H34C34.2652 17 34.5196 17.1054 34.7071 17.2929C34.8946 17.4804 35 17.7348 35 18V21H15V18ZM15 35V23H35V35H15Z" fill="white"/>
<path d="M30 26.0001H28V28.0001H30V26.0001Z" fill="white"/>
<path d="M26.0001 26.0001H24.0001V28.0001H26.0001V26.0001Z" fill="white"/>
<path d="M21.9999 26.0001H19.9999V28.0001H21.9999V26.0001Z" fill="white"/>
<path d="M30 30.0001H28V32.0001H30V30.0001Z" fill="white"/>
<path d="M26.0001 30.0001H24.0001V32.0001H26.0001V30.0001Z" fill="white"/>
<path d="M21.9999 30.0001H19.9999V32.0001H21.9999V30.0001Z" fill="white"/>
</g>
<defs>
<clipPath id="clip0_1153_26459">
<rect width="24" height="24" fill="white" transform="translate(13 13)"/>
</clipPath>
</defs>
</svg>
