<svg width="50" height="50" viewBox="0 0 50 50" fill="none" xmlns="http://www.w3.org/2000/svg">
<rect width="50" height="50" rx="25" fill="white" fill-opacity="0.2"/>
<g clip-path="url(#clip0_1166_25438)">
<path d="M27.4141 13H18.0001C17.2045 13 16.4414 13.3161 15.8788 13.8787C15.3162 14.4413 15.0001 15.2044 15.0001 16V37H35.0001V20.586L27.4141 13ZM28.0001 16.414L31.5861 20H28.0001V16.414ZM17.0001 35V16C17.0001 15.7348 17.1055 15.4804 17.293 15.2929C17.4806 15.1054 17.7349 15 18.0001 15H26.0001V22H33.0001V35H17.0001ZM28.2931 26.122L29.7071 27.536L26.1211 31.121C25.8425 31.3996 25.5118 31.6207 25.1478 31.7715C24.7838 31.9222 24.3936 31.9999 23.9996 31.9999C23.6056 31.9999 23.2155 31.9222 22.8515 31.7715C22.4874 31.6207 22.1567 31.3996 21.8781 31.121L20.2931 29.536L21.7071 28.122L23.2931 29.707C23.4835 29.889 23.7367 29.9906 24.0001 29.9906C24.2635 29.9906 24.5168 29.889 24.7071 29.707L28.2931 26.122Z" fill="white"/>
</g>
<defs>
<clipPath id="clip0_1166_25438">
<rect width="24" height="24" fill="white" transform="translate(13 13)"/>
</clipPath>
</defs>
</svg>
