<svg width="44" height="43" viewBox="0 0 44 43" fill="none" xmlns="http://www.w3.org/2000/svg">
<path d="M30.2784 20.3178C31.6901 19.1356 32.5878 17.36 32.5878 15.3747C32.5878 13.3895 31.6901 11.6139 30.2784 10.4318C30.4402 10.3534 30.5959 10.2684 30.7442 10.1763C31.6806 9.59406 32.7858 9.25782 33.9696 9.25782C37.348 9.25782 40.0868 11.9965 40.0868 15.3747C40.0868 18.753 37.348 21.4916 33.9696 21.4916C32.7858 21.4916 31.6806 21.1554 30.7442 20.5733C30.5959 20.4811 30.4402 20.3961 30.2784 20.3178Z" fill="#121C44"/>
<path d="M28.5795 16.3379C29.2109 14.6083 29.1006 12.6218 28.1079 10.9025C27.1152 9.18322 25.4499 8.09436 23.6362 7.77643C23.7372 7.62772 23.8295 7.47623 23.9118 7.32227C24.4316 6.34991 25.2207 5.50612 26.2458 4.91425C29.1717 3.22511 32.9129 4.22752 34.6021 7.1532C36.2913 10.0789 35.2889 13.82 32.363 15.5091C31.3379 16.1009 30.2125 16.3623 29.1105 16.3264C28.9361 16.3206 28.7587 16.3249 28.5795 16.3379Z" fill="#121C44"/>
<path d="M25.1177 13.7405C24.7997 11.9269 23.7108 10.2617 21.9915 9.26905C20.2721 8.27642 18.2855 8.16607 16.5558 8.79752C16.569 8.61828 16.5731 8.44092 16.5674 8.26645C16.5314 7.16443 16.7928 6.03918 17.3847 5.01403C19.074 2.08835 22.8151 1.08594 25.741 2.77508C28.6667 4.46422 29.6692 8.20528 27.98 11.131C27.3881 12.1561 26.5443 12.9451 25.5718 13.465C25.418 13.5473 25.2665 13.6395 25.1177 13.7405Z" fill="#121C44"/>
<path d="M20.8207 13.2219C19.6385 11.8102 17.8629 10.9125 15.8775 10.9125C13.8921 10.9125 12.1165 11.8102 10.9343 13.2219C10.856 13.0601 10.771 12.9044 10.6788 12.7561C10.0966 11.8197 9.76031 10.7146 9.76031 9.53082C9.76031 6.15252 12.4991 3.41388 15.8775 3.41388C19.2559 3.41388 21.9947 6.15252 21.9947 9.53082C21.9947 10.7146 21.6584 11.8197 21.0762 12.7561C20.984 12.9044 20.899 13.0601 20.8207 13.2219Z" fill="#121C44"/>
<path d="M16.8396 14.9209C15.11 14.2894 13.1233 14.3998 11.404 15.3923C9.68461 16.385 8.59571 18.0502 8.27778 19.8638C8.12906 19.7628 7.97756 19.6706 7.82359 19.5883C6.85119 19.0684 6.00737 18.2794 5.41548 17.2543C3.72626 14.3285 4.72871 10.5875 7.65452 8.89837C10.5803 7.20921 14.3215 8.21163 16.0108 11.1373C16.6027 12.1624 16.8641 13.2877 16.828 14.3897C16.8223 14.5642 16.8265 14.7415 16.8396 14.9209Z" fill="#121C44"/>
<path d="M14.241 18.3826C12.4274 18.7006 10.7621 19.7894 9.76938 21.5087C8.77671 23.228 8.66636 25.2146 9.29784 26.9441C9.11857 26.931 8.94118 26.9268 8.76668 26.9325C7.66463 26.9686 6.53934 26.7072 5.51416 26.1153C2.58835 24.4261 1.5859 20.6851 3.27511 17.7594C4.96432 14.8337 8.70553 13.8312 11.6313 15.5204C12.6565 16.1123 13.4455 16.9561 13.9654 17.9284C14.0477 18.0824 14.1401 18.2339 14.241 18.3826Z" fill="#121C44"/>
<path d="M13.7215 22.6798C12.3098 23.8619 11.412 25.6375 11.412 27.6227C11.412 29.608 12.3098 31.3836 13.7215 32.5657C13.5597 32.644 13.404 32.7291 13.2557 32.8213C12.3193 33.4034 11.2141 33.7396 10.0303 33.7396C6.65186 33.7396 3.9131 31.001 3.9131 27.6227C3.9131 24.2444 6.65186 21.5058 10.0303 21.5058C11.2141 21.5058 12.3193 21.842 13.2557 22.4243C13.404 22.5164 13.5597 22.6014 13.7215 22.6798Z" fill="#121C44"/>
<path d="M15.42 26.6608C14.7884 28.3903 14.8988 30.3769 15.8915 32.0962C16.8842 33.8156 18.5495 34.9043 20.3631 35.2223C20.2622 35.371 20.1699 35.5225 20.0876 35.6765C19.5677 36.6488 18.7787 37.4926 17.7535 38.0844C14.8277 39.7737 11.0865 38.7712 9.39726 35.8455C7.70804 32.9198 8.7105 29.1788 11.6363 27.4896C12.6615 26.8977 13.7868 26.6363 14.8888 26.6724C15.0633 26.6781 15.2407 26.6739 15.42 26.6608Z" fill="#121C44"/>
<path d="M18.8818 29.2595C19.1997 31.0731 20.2887 32.7383 22.008 33.7309C23.7274 34.7235 25.7141 34.8339 27.4437 34.2024C27.4306 34.3818 27.4264 34.559 27.4321 34.7336C27.4682 35.8356 27.2068 36.9609 26.6149 37.986C24.9256 40.9117 21.1845 41.9141 18.2586 40.2249C15.3328 38.5358 14.3303 34.7948 16.0196 31.869C16.6115 30.8439 17.4553 30.0549 18.4276 29.535C18.5816 29.4527 18.7331 29.3604 18.8818 29.2595Z" fill="#121C44"/>
<path d="M23.1791 29.779C24.3613 31.1906 26.1369 32.0883 28.1223 32.0883C30.1077 32.0883 31.8834 31.1906 33.0656 29.779C33.1438 29.9408 33.2288 30.0965 33.3211 30.2447C33.9032 31.181 34.2395 32.2863 34.2395 33.47C34.2395 36.8483 31.5008 39.587 28.1223 39.587C24.7439 39.587 22.0051 36.8483 22.0051 33.47C22.0051 32.2863 22.3414 31.181 22.9236 30.2447C23.0158 30.0965 23.1008 29.9408 23.1791 29.779Z" fill="#121C44"/>
<path d="M27.1605 28.0805C28.8901 28.712 30.8768 28.6016 32.5961 27.6091C34.3155 26.6164 35.4044 24.9512 35.7223 23.1376C35.871 23.2385 36.0225 23.3308 36.1765 23.4131C37.1489 23.933 37.9927 24.722 38.5846 25.7471C40.2739 28.6729 39.2714 32.4139 36.3456 34.1031C33.4198 35.7922 29.6786 34.7898 27.9893 31.8641C27.3975 30.839 27.1361 29.7137 27.172 28.6117C27.1778 28.4372 27.1736 28.2599 27.1605 28.0805Z" fill="#121C44"/>
<path d="M34.2343 21.4863C34.2331 21.4884 34.2318 21.4906 34.2306 21.4927C33.238 23.212 31.5727 24.3009 29.7591 24.6188C29.8599 24.7676 29.9523 24.9191 30.0346 25.073C30.5545 26.0454 31.3435 26.8892 32.3687 27.481C35.2945 29.1702 39.0357 28.1677 40.7249 25.2421C42.1731 22.7338 41.6429 19.6263 39.6185 17.7262C38.7291 19.8604 36.6654 21.3827 34.2343 21.4863Z" fill="#121C44"/>
<path d="M31.1063 20.1995C32.6591 18.8992 33.6466 16.946 33.6466 14.7622C33.6466 12.5785 32.6591 10.6253 31.1063 9.32496C31.2842 9.23878 31.4555 9.14525 31.6187 9.0439C32.6487 8.40347 33.8644 8.03361 35.1665 8.03361C38.8828 8.03361 41.8954 11.0462 41.8954 14.7622C41.8954 18.4783 38.8828 21.4908 35.1665 21.4908C33.8644 21.4908 32.6487 21.121 31.6187 20.4806C31.4555 20.3792 31.2842 20.2857 31.1063 20.1995Z" fill="#121C44"/>
<path d="M29.2374 15.8217C29.932 13.9192 29.8106 11.734 28.7187 9.84275C27.6267 7.95154 25.7949 6.7538 23.7998 6.40407C23.9109 6.24049 24.0124 6.07386 24.1029 5.9045C24.6748 4.8349 25.5428 3.90673 26.6704 3.25568C29.8889 1.39762 34.0042 2.50028 35.8623 5.71852C37.7204 8.93678 36.6177 13.052 33.3993 14.91C32.2717 15.561 31.0338 15.8486 29.8216 15.809C29.6297 15.8027 29.4345 15.8074 29.2374 15.8217Z" fill="#121C44"/>
<path d="M25.4294 12.9646C25.0797 10.9696 23.8819 9.13786 21.9906 8.04596C20.0993 6.95406 17.914 6.83268 16.0114 7.52727C16.0258 7.3301 16.0304 7.13501 16.0241 6.94309C15.9846 5.73087 16.2721 4.4931 16.9232 3.36543C18.7814 0.147185 22.8966 -0.95547 26.1151 0.902588C29.3334 2.76065 30.4362 6.87581 28.578 10.0941C27.9269 11.2217 26.9987 12.0897 25.929 12.6615C25.7598 12.752 25.5931 12.8535 25.4294 12.9646Z" fill="#121C44"/>
<path d="M20.7028 12.3941C19.4024 10.8412 17.4492 9.85379 15.2652 9.85379C13.0813 9.85379 11.1281 10.8412 9.82774 12.3941C9.7416 12.2161 9.64805 12.0448 9.54665 11.8817C8.90622 10.8517 8.53635 9.63603 8.53635 8.3339C8.53635 4.61777 11.549 1.60526 15.2652 1.60526C18.9815 1.60526 21.9941 4.61777 21.9941 8.3339C21.9941 9.63603 21.6242 10.8517 20.9839 11.8817C20.8824 12.0448 20.7889 12.2161 20.7028 12.3941Z" fill="#121C44"/>
<path d="M16.3236 14.2629C14.421 13.5684 12.2357 13.6897 10.3444 14.7815C8.45307 15.8735 7.25528 17.7052 6.90555 19.7002C6.74197 19.5891 6.57532 19.4876 6.40595 19.3971C5.33631 18.8253 4.4081 17.9573 3.75703 16.8297C1.89889 13.6114 3.00158 9.49629 6.21997 7.63821C9.43835 5.78014 13.5537 6.88279 15.4119 10.1011C16.0629 11.2287 16.3505 12.4665 16.3108 13.6787C16.3046 13.8706 16.3092 14.0657 16.3236 14.2629Z" fill="#121C44"/>
<path d="M13.4651 18.0709C11.4701 18.4206 9.63826 19.6184 8.54632 21.5096C7.45438 23.4008 7.333 25.586 8.02763 27.4885C7.83043 27.4741 7.6353 27.4695 7.44335 27.4757C6.2311 27.5154 4.99327 27.2279 3.86558 26.5768C0.64719 24.7187 -0.455509 20.6036 1.40262 17.3853C3.26075 14.1671 7.37608 13.0644 10.5945 14.9225C11.7222 15.5735 12.5901 16.5017 13.1619 17.5712C13.2525 17.7406 13.3541 17.9072 13.4651 18.0709Z" fill="#121C44"/>
<path d="M12.8936 22.7977C11.3407 24.0981 10.3532 26.0513 10.3532 28.235C10.3532 30.4188 11.3407 32.372 12.8936 33.6723C12.7156 33.7584 12.5444 33.852 12.3813 33.9534C11.3512 34.5937 10.1355 34.9636 8.8333 34.9636C5.11704 34.9636 2.10442 31.9511 2.10442 28.235C2.10442 24.5188 5.11704 21.5063 8.8333 21.5063C10.1355 21.5063 11.3512 21.8762 12.3813 22.5167C12.5444 22.618 12.7156 22.7116 12.8936 22.7977Z" fill="#121C44"/>
<path d="M14.762 27.1768C14.0673 29.0794 14.1887 31.2646 15.2806 33.1558C16.3726 35.0471 18.2044 36.2448 20.1994 36.5945C20.0884 36.7581 19.9869 36.9248 19.8963 37.0942C19.3245 38.1637 18.4565 39.0918 17.3289 39.7429C14.1104 41.601 9.99511 40.4983 8.13698 37.2801C6.27884 34.0618 7.38155 29.9467 10.5999 28.0886C11.7276 27.4375 12.9655 27.15 14.1777 27.1897C14.3696 27.1959 14.5647 27.1913 14.762 27.1768Z" fill="#121C44"/>
<path d="M18.57 30.0355C18.9197 32.0304 20.1175 33.8622 22.0088 34.954C23.9001 36.0459 26.0855 36.1673 27.9881 35.4727C27.9737 35.6699 27.9691 35.8649 27.9753 36.057C28.015 37.2691 27.7274 38.5069 27.0764 39.6346C25.2182 42.8529 21.1029 43.9555 17.8845 42.0974C14.666 40.2393 13.5634 36.1242 15.4216 32.9059C16.0727 31.7783 17.0008 30.9104 18.0704 30.3385C18.2398 30.248 18.4064 30.1464 18.57 30.0355Z" fill="#121C44"/>
<path d="M23.297 30.6069C24.5974 32.1597 26.5506 33.1472 28.7345 33.1472C30.9185 33.1472 32.8717 32.1597 34.1721 30.6069C34.2582 30.7849 34.3517 30.9561 34.4532 31.1191C35.0936 32.1491 35.4634 33.3649 35.4634 34.667C35.4634 38.3832 32.4508 41.3956 28.7345 41.3956C25.0183 41.3956 22.0057 38.3832 22.0057 34.667C22.0057 33.3649 22.3755 32.1491 23.0159 31.1191C23.1174 30.9561 23.2109 30.7849 23.297 30.6069Z" fill="#121C44"/>
<path d="M27.6765 28.7386C29.5791 29.4332 31.7644 29.3118 33.6557 28.22C35.547 27.1281 36.7448 25.2963 37.0945 23.3014C37.2581 23.4123 37.4247 23.5139 37.5941 23.6045C38.6638 24.1763 39.592 25.0442 40.2431 26.1718C42.1013 29.3901 40.9985 33.5052 37.7802 35.3634C34.5617 37.2214 30.4465 36.1188 28.5883 32.9005C27.9372 31.7728 27.6497 30.535 27.6892 29.3229C27.6956 29.131 27.691 28.9358 27.6765 28.7386Z" fill="#121C44"/>
<path d="M35.4578 21.4849C35.4564 21.4873 35.455 21.4897 35.4537 21.492C34.3618 23.3832 32.53 24.581 30.535 24.9307C30.6459 25.0944 30.7475 25.261 30.838 25.4303C31.4099 26.4999 32.2779 27.4281 33.4055 28.0791C36.624 29.9373 40.7392 28.8345 42.5974 25.6163C44.1904 22.8572 43.6072 19.4389 41.3804 17.3488C40.4021 19.6964 38.1319 21.371 35.4578 21.4849Z" fill="#121C44"/>
</svg>
