<svg width="16" height="16" viewBox="0 0 16 16" fill="none" xmlns="http://www.w3.org/2000/svg">
<g clip-path="url(#clip0_1512_29889)">
<path d="M4.66677 8H11.3334V9.33333H4.66677V8ZM4.66677 12H9.33344V10.6667H4.66677V12ZM14.6668 5.05733V16H1.33344V2C1.33344 1.46957 1.54415 0.960859 1.91922 0.585786C2.29429 0.210714 2.803 0 3.33344 0L9.60944 0L14.6668 5.05733ZM10.0001 4.66667H12.3908L10.0001 2.276V4.66667ZM13.3334 14.6667V6H8.66677V1.33333H3.33344C3.15662 1.33333 2.98705 1.40357 2.86203 1.5286C2.73701 1.65362 2.66677 1.82319 2.66677 2V14.6667H13.3334Z" fill="#140802"/>
</g>
<defs>
<clipPath id="clip0_1512_29889">
<rect width="16" height="16" fill="white"/>
</clipPath>
</defs>
</svg>
