<svg width="20" height="20" viewBox="0 0 20 20" fill="none" xmlns="http://www.w3.org/2000/svg">
<path d="M10 7.51794V10.3825" stroke="#CD0D0D" stroke-width="2" stroke-linecap="round" stroke-linejoin="round"/>
<path d="M11.8034 3.19587L10.9379 3.69682L11.8034 3.19587C11.6149 2.87021 11.3441 2.59985 11.0181 2.4119C10.6921 2.22394 10.3225 2.125 9.94622 2.125C9.56995 2.125 9.20029 2.22394 8.87433 2.4119C8.54836 2.59985 8.27755 2.87021 8.08906 3.19587L1.78867 14.0807C1.59988 14.4069 1.50031 14.7771 1.5 15.1539C1.49969 15.5308 1.59864 15.9011 1.7869 16.2276C1.97515 16.5541 2.24608 16.8252 2.57241 17.0138C2.89873 17.2023 3.26896 17.3015 3.64584 17.3015H16.2466C16.6235 17.3015 16.9937 17.2023 17.32 17.0138C17.6464 16.8252 17.9173 16.5541 18.1055 16.2276C18.2938 15.9011 18.3928 15.5308 18.3924 15.1539C18.3921 14.777 18.2926 14.4069 18.1038 14.0807L11.8034 3.19587Z" stroke="#CD0D0D" stroke-width="2" stroke-linecap="round" stroke-linejoin="round"/>
<path d="M10 14.2667C10.5155 14.2667 10.9334 13.8488 10.9334 13.3333C10.9334 12.8179 10.5155 12.4 10 12.4C9.48455 12.4 9.06669 12.8179 9.06669 13.3333C9.06669 13.8488 9.48455 14.2667 10 14.2667Z" fill="#CD0D0D" stroke="#CD0D0D" stroke-width="0.2"/>
</svg>
