<svg width="18" height="18" viewBox="0 0 18 18" fill="none" xmlns="http://www.w3.org/2000/svg">
<path d="M17.9659 16.3575L14.9759 7.99752C14.7659 7.44752 14.2959 7.10752 13.7559 7.10752C13.2159 7.10752 12.7559 7.44752 12.5259 8.01752L9.54586 16.3575C9.5091 16.4508 9.49142 16.5505 9.49387 16.6508C9.49632 16.751 9.51884 16.8498 9.56012 16.9412C9.60139 17.0326 9.66057 17.1147 9.73416 17.1829C9.80774 17.251 9.89424 17.3036 9.98854 17.3378C10.0828 17.3719 10.183 17.3867 10.2832 17.3814C10.3833 17.3761 10.4814 17.3508 10.5715 17.307C10.6617 17.2632 10.7422 17.2017 10.8082 17.1262C10.8742 17.0507 10.9244 16.9627 10.9559 16.8675L11.5759 15.1375H15.9259L16.5459 16.8675C16.6559 17.1775 16.9459 17.3675 17.2559 17.3675C17.3359 17.3675 17.4259 17.3575 17.5059 17.3275C17.6928 17.2598 17.8452 17.1207 17.9296 16.9407C18.014 16.7607 18.0234 16.5545 17.9559 16.3675L17.9659 16.3575ZM12.1259 13.6275L13.7659 9.03752L15.4059 13.6275H12.1259ZM9.57586 4.83752C7.31586 8.40752 5.27586 10.5675 2.79586 12.0075C2.71116 12.0568 2.61759 12.0889 2.52048 12.102C2.42338 12.115 2.32465 12.1089 2.22993 12.0838C2.13521 12.0587 2.04636 12.0152 1.96845 11.9558C1.89054 11.8964 1.8251 11.8222 1.77586 11.7375C1.72553 11.6531 1.69256 11.5595 1.6789 11.4622C1.66524 11.3648 1.67116 11.2657 1.69631 11.1707C1.72146 11.0757 1.76534 10.9867 1.82536 10.9089C1.88539 10.831 1.96035 10.766 2.04586 10.7175C4.14586 9.49752 5.86586 7.74752 7.79586 4.84752H1.50586C1.09586 4.84752 0.755859 4.50752 0.755859 4.09752C0.755859 3.68752 1.09586 3.34752 1.50586 3.34752H5.25586V1.36752C5.25586 0.957523 5.59586 0.617523 6.00586 0.617523C6.41586 0.617523 6.75586 0.957523 6.75586 1.36752V3.34752H10.5059C10.9159 3.34752 11.2559 3.68752 11.2559 4.09752C11.2559 4.50752 10.9159 4.84752 10.5059 4.84752H9.56586L9.57586 4.83752ZM9.61586 12.1075C9.48586 12.1075 9.35586 12.0775 9.23586 12.0075C8.58586 11.6275 7.95586 11.2075 7.36586 10.7675C7.20673 10.6482 7.10153 10.4705 7.0734 10.2736C7.04527 10.0767 7.09651 9.87665 7.21586 9.71752C7.33521 9.55839 7.51288 9.45319 7.70979 9.42506C7.90671 9.39693 8.10673 9.44818 8.26586 9.56752C8.80586 9.97752 9.39586 10.3575 9.99586 10.7075C10.1379 10.7912 10.2485 10.9192 10.3107 11.0719C10.3729 11.2245 10.3832 11.3934 10.34 11.5525C10.2968 11.7116 10.2026 11.8521 10.0717 11.9524C9.94089 12.0527 9.78071 12.1072 9.61586 12.1075Z" fill="white"/>
</svg>
