<svg width="42" height="42" viewBox="0 0 42 42" fill="none" xmlns="http://www.w3.org/2000/svg">
<path d="M29.0859 19.8453C30.4648 18.6906 31.3416 16.9563 31.3416 15.0172C31.3416 13.0781 30.4648 11.3438 29.0859 10.1892C29.2439 10.1127 29.396 10.0296 29.5409 9.93961C30.4555 9.37094 31.535 9.04253 32.6912 9.04253C35.9911 9.04253 38.6661 11.7175 38.6661 15.0172C38.6661 18.3169 35.9911 20.9918 32.6912 20.9918C31.535 20.9918 30.4555 20.6634 29.5409 20.0948C29.396 20.0048 29.2439 19.9218 29.0859 19.8453Z" fill="white"/>
<path d="M27.4265 15.958C28.0432 14.2686 27.9354 12.3283 26.9658 10.649C25.9962 8.96965 24.3696 7.90612 22.5982 7.59558C22.6968 7.45033 22.7869 7.30237 22.8673 7.15199C23.3751 6.20224 24.1458 5.37807 25.1471 4.79997C28.0049 3.15011 31.6592 4.12921 33.309 6.98685C34.9589 9.8445 33.9798 13.4986 31.122 15.1484C30.1207 15.7265 29.0216 15.9818 27.9452 15.9467C27.7748 15.9411 27.6015 15.9453 27.4265 15.958Z" fill="white"/>
<path d="M24.0452 13.421C23.7346 11.6496 22.671 10.023 20.9917 9.05349C19.3123 8.08394 17.3719 7.97617 15.6824 8.59293C15.6953 8.41785 15.6993 8.24462 15.6937 8.07421C15.6586 6.99782 15.9139 5.89873 16.492 4.89742C18.142 2.03978 21.7962 1.06068 24.654 2.71054C27.5117 4.3604 28.4909 8.01446 26.8409 10.8721C26.2628 11.8734 25.4386 12.6441 24.4888 13.1518C24.3385 13.2322 24.1905 13.3223 24.0452 13.421Z" fill="white"/>
<path d="M19.8481 12.9144C18.6934 11.5356 16.9591 10.6588 15.0199 10.6588C13.0807 10.6588 11.3463 11.5356 10.1916 12.9144C10.1152 12.7564 10.0321 12.6043 9.94206 12.4594C9.37339 11.5448 9.04496 10.4654 9.04496 9.30917C9.04496 6.00944 11.72 3.33448 15.0199 3.33448C18.3197 3.33448 20.9948 6.00944 20.9948 9.30917C20.9948 10.4654 20.6663 11.5448 20.0977 12.4594C20.0076 12.6043 19.9246 12.7564 19.8481 12.9144Z" fill="white"/>
<path d="M15.9597 14.5739C14.2702 13.9571 12.3298 14.0649 10.6504 15.0343C8.97102 16.0039 7.90744 17.6304 7.5969 19.4018C7.45164 19.3032 7.30366 19.2131 7.15327 19.1327C6.20349 18.625 5.37929 17.8543 4.80117 16.853C3.15123 13.9953 4.13037 10.3413 6.98813 8.69143C9.84589 7.04156 13.5001 8.02066 15.1501 10.8783C15.7282 11.8796 15.9835 12.9787 15.9483 14.0551C15.9428 14.2255 15.9468 14.3987 15.9597 14.5739Z" fill="white"/>
<path d="M13.4215 17.9551C11.65 18.2657 10.0234 19.3292 9.05381 21.0085C8.08423 22.6878 7.97645 24.6282 8.59324 26.3175C8.41814 26.3047 8.24488 26.3006 8.07443 26.3062C6.99801 26.3414 5.89889 26.0861 4.89755 25.508C2.03979 23.858 1.06065 20.204 2.71058 17.3463C4.3605 14.4888 8.0147 13.5096 10.8725 15.1595C11.8738 15.7376 12.6445 16.5617 13.1522 17.5114C13.2326 17.6618 13.3229 17.8098 13.4215 17.9551Z" fill="white"/>
<path d="M12.914 22.1523C11.5351 23.307 10.6582 25.0413 10.6582 26.9803C10.6582 28.9195 11.5351 30.6537 12.914 31.8084C12.756 31.8848 12.6039 31.968 12.4591 32.058C11.5444 32.6266 10.4649 32.955 9.30864 32.955C6.00879 32.955 3.33373 30.2801 3.33373 26.9803C3.33373 23.6806 6.00879 21.0056 9.30864 21.0056C10.4649 21.0056 11.5444 21.3341 12.4591 21.9028C12.6039 21.9928 12.756 22.0758 12.914 22.1523Z" fill="white"/>
<path d="M14.573 26.0407C13.9561 27.7301 14.0639 29.6705 15.0335 31.3498C16.0031 33.0292 17.6297 34.0926 19.4012 34.4031C19.3026 34.5485 19.2125 34.6964 19.1321 34.8468C18.6243 35.7965 17.8536 36.6207 16.8523 37.1988C13.9945 38.8487 10.3403 37.8695 8.69034 35.0119C7.04041 32.1542 8.01956 28.5002 10.8773 26.8503C11.8787 26.2722 12.9778 26.0169 14.0542 26.0521C14.2246 26.0576 14.3979 26.0536 14.573 26.0407Z" fill="white"/>
<path d="M17.9543 28.5791C18.2649 30.3505 19.3285 31.977 21.0078 32.9464C22.6872 33.916 24.6277 34.0238 26.3171 33.407C26.3043 33.5822 26.3003 33.7553 26.3058 33.9258C26.341 35.0022 26.0857 36.1013 25.5076 37.1026C23.8576 39.9603 20.2034 40.9393 17.3456 39.2894C14.4878 37.6396 13.5087 33.9856 15.1587 31.1279C15.7368 30.1266 16.561 29.3559 17.5107 28.8482C17.6611 28.7678 17.8091 28.6776 17.9543 28.5791Z" fill="white"/>
<path d="M22.1517 29.0865C23.3064 30.4653 25.0407 31.3421 26.9799 31.3421C28.9192 31.3421 30.6535 30.4653 31.8082 29.0865C31.8846 29.2445 31.9677 29.3965 32.0578 29.5413C32.6264 30.4559 32.9548 31.5354 32.9548 32.6916C32.9548 35.9914 30.2798 38.6663 26.9799 38.6663C23.6801 38.6663 21.005 35.9914 21.005 32.6916C21.005 31.5354 21.3335 30.4559 21.9021 29.5413C21.9922 29.3965 22.0752 29.2445 22.1517 29.0865Z" fill="white"/>
<path d="M26.0405 27.4275C27.7299 28.0443 29.6703 27.9365 31.3497 26.967C33.0291 25.9974 34.0926 24.3709 34.4032 22.5995C34.5484 22.698 34.6964 22.7883 34.8468 22.8686C35.7966 23.3764 36.6208 24.1471 37.1989 25.1484C38.8489 28.006 37.8697 31.6601 35.012 33.31C32.1542 34.9598 28.5 33.9807 26.8501 31.123C26.2719 30.1218 26.0166 29.0227 26.0517 27.9463C26.0574 27.7759 26.0533 27.6026 26.0405 27.4275Z" fill="white"/>
<path d="M32.9498 20.9866C32.9486 20.9887 32.9474 20.9908 32.9462 20.9929C31.9767 22.6722 30.3501 23.7358 28.5786 24.0463C28.6771 24.1916 28.7673 24.3396 28.8477 24.4899C29.3555 25.4397 30.1262 26.2638 31.1275 26.8419C33.9853 28.4919 37.6395 27.5127 39.2895 24.6551C40.7039 22.2051 40.1861 19.1698 38.2088 17.314C37.3401 19.3985 35.3244 20.8855 32.9498 20.9866Z" fill="white"/>
<path d="M29.8945 19.7298C31.4112 18.4597 32.3758 16.5519 32.3758 14.4189C32.3758 12.2859 31.4112 10.3782 29.8945 9.1081C30.0683 9.02392 30.2356 8.93257 30.395 8.83357C31.401 8.20804 32.5885 7.84678 33.8603 7.84678C37.4902 7.84678 40.4327 10.7893 40.4327 14.4189C40.4327 18.0486 37.4902 20.991 33.8603 20.991C32.5885 20.991 31.401 20.6298 30.395 20.0043C30.2356 19.9053 30.0683 19.814 29.8945 19.7298Z" fill="white"/>
<path d="M28.0691 15.4538C28.7475 13.5955 28.629 11.4611 27.5624 9.61385C26.4958 7.76662 24.7066 6.59673 22.758 6.25514C22.8665 6.09537 22.9656 5.93261 23.054 5.76718C23.6126 4.72246 24.4604 3.81587 25.5618 3.17997C28.7054 1.36512 32.7251 2.44213 34.5399 5.58553C36.3548 8.72895 35.2778 12.7485 32.1342 14.5632C31.0328 15.1992 29.8237 15.48 28.6397 15.4414C28.4522 15.4352 28.2616 15.4398 28.0691 15.4538Z" fill="white"/>
<path d="M24.3497 12.6631C24.0081 10.7145 22.8381 8.92535 20.9908 7.85884C19.1435 6.79234 17.0091 6.67378 15.1507 7.35222C15.1648 7.15964 15.1693 6.96908 15.1631 6.78163C15.1245 5.5976 15.4053 4.38861 16.0412 3.28717C17.8562 0.143762 21.8758 -0.93325 25.0194 0.881598C28.1628 2.69645 29.24 6.71591 27.425 9.85935C26.7891 10.9607 25.8825 11.8085 24.8376 12.367C24.6723 12.4555 24.5095 12.5546 24.3497 12.6631Z" fill="white"/>
<path d="M19.733 12.1058C18.4628 10.5891 16.555 9.62463 14.4219 9.62463C12.2887 9.62463 10.381 10.5891 9.11081 12.1058C9.02668 11.932 8.9353 11.7647 8.83626 11.6054C8.21073 10.5993 7.84945 9.41193 7.84945 8.14009C7.84945 4.51038 10.792 1.56793 14.4219 1.56793C18.0517 1.56793 20.9943 4.51038 20.9943 8.14009C20.9943 9.41193 20.633 10.5993 20.0075 11.6054C19.9084 11.7647 19.817 11.932 19.733 12.1058Z" fill="white"/>
<path d="M15.4556 13.9312C13.5973 13.2528 11.4627 13.3714 9.61543 14.4378C7.76812 15.5043 6.59818 17.2935 6.25659 19.242C6.09681 19.1335 5.93403 19.0344 5.7686 18.946C4.72384 18.3875 3.81722 17.5397 3.18128 16.4383C1.36635 13.2948 2.44341 9.27545 5.58695 7.46057C8.73048 5.64571 12.7501 6.72273 14.5651 9.86617C15.201 10.9676 15.4819 12.1766 15.4431 13.3606C15.437 13.548 15.4415 13.7386 15.4556 13.9312Z" fill="white"/>
<path d="M12.6636 17.6507C10.715 17.9922 8.92574 19.1621 7.8592 21.0094C6.79265 22.8566 6.67409 24.991 7.35256 26.8493C7.15995 26.8352 6.96936 26.8307 6.78188 26.8368C5.59781 26.8755 4.38878 26.5947 3.28731 25.9588C0.143767 24.1438 -0.933287 20.1244 0.881633 16.981C2.69655 13.8376 6.71617 12.7605 9.85971 14.5755C10.9612 15.2114 11.8089 16.1179 12.3675 17.1626C12.4559 17.328 12.5552 17.4908 12.6636 17.6507Z" fill="white"/>
<path d="M12.1054 22.2676C10.5886 23.5377 9.62405 25.4454 9.62405 27.5783C9.62405 29.7114 10.5886 31.6191 12.1054 32.8892C11.9316 32.9733 11.7643 33.0648 11.605 33.1638C10.5989 33.7892 9.41138 34.1505 8.13951 34.1505C4.50967 34.1505 1.5671 31.2081 1.5671 27.5783C1.5671 23.9486 4.50967 21.0062 8.13951 21.0062C9.41138 21.0062 10.5989 21.3675 11.605 21.993C11.7643 22.092 11.9316 22.1834 12.1054 22.2676Z" fill="white"/>
<path d="M13.9303 26.5448C13.2518 28.4031 13.3703 30.5375 14.4369 32.3847C15.5035 34.2321 17.2927 35.4019 19.2413 35.7434C19.1328 35.9033 19.0337 36.0661 18.9453 36.2315C18.3867 37.2762 17.5389 38.1827 16.4375 38.8186C13.2939 40.6336 9.2743 39.5565 7.45938 36.4131C5.64445 33.2697 6.72151 29.2503 9.86504 27.4353C10.9665 26.7994 12.1756 26.5186 13.3596 26.5573C13.5471 26.5634 13.7377 26.5589 13.9303 26.5448Z" fill="white"/>
<path d="M17.6498 29.337C17.9914 31.2855 19.1613 33.0747 21.0086 34.1411C22.8559 35.2076 24.9905 35.3262 26.8489 34.6477C26.8348 34.8404 26.8303 35.0309 26.8364 35.2184C26.8751 36.4024 26.5942 37.6114 25.9583 38.7128C24.1433 41.8563 20.1238 42.9333 16.9802 41.1183C13.8366 39.3035 12.7596 35.2841 14.5746 32.1407C15.2105 31.0393 16.1171 30.1915 17.1618 29.633C17.3272 29.5446 17.49 29.4453 17.6498 29.337Z" fill="#F3F4F6"/>
<path d="M22.2668 29.8951C23.537 31.4118 25.4448 32.3763 27.5779 32.3763C29.7111 32.3763 31.6189 31.4118 32.889 29.8951C32.9731 30.0689 33.0645 30.2362 33.1636 30.3954C33.7891 31.4015 34.1503 32.589 34.1503 33.8608C34.1503 37.4905 31.2078 40.433 27.5779 40.433C23.9481 40.433 21.0055 37.4905 21.0055 33.8608C21.0055 32.589 21.3668 31.4015 21.9923 30.3954C22.0914 30.2362 22.1828 30.0689 22.2668 29.8951Z" fill="white"/>
<path d="M26.5445 28.0703C28.4029 28.7487 30.5373 28.6301 32.3847 27.5637C34.232 26.4972 35.4019 24.708 35.7435 22.7595C35.9032 22.8678 36.066 22.9671 36.2315 23.0555C37.2763 23.614 38.1829 24.4618 38.8188 25.5632C40.6338 28.7067 39.5567 32.7261 36.4132 34.541C33.2696 36.3558 29.2501 35.2788 27.4351 32.1353C26.7991 31.0339 26.5183 29.8249 26.5569 28.6409C26.5631 28.4535 26.5586 28.2629 26.5445 28.0703Z" fill="white"/>
<path d="M34.1448 20.9853C34.1434 20.9876 34.1421 20.9899 34.1408 20.9922C33.0743 22.8394 31.2851 24.0093 29.3365 24.3509C29.4448 24.5108 29.5441 24.6736 29.6325 24.8389C30.1911 25.8837 31.0389 26.7902 32.1403 27.4261C35.2839 29.241 39.3034 28.1639 41.1184 25.0206C42.6743 22.3256 42.1047 18.9868 39.9296 16.9454C38.9741 19.2384 36.7568 20.874 34.1448 20.9853Z" fill="white"/>
</svg>
