<svg width="50" height="50" viewBox="0 0 50 50" fill="none" xmlns="http://www.w3.org/2000/svg">
<rect width="50" height="50" rx="25" fill="white" fill-opacity="0.2"/>
<g clip-path="url(#clip0_1153_26466)">
<path d="M32 27.0073C32.0001 25.8557 31.716 24.7218 31.173 23.7062C30.63 22.6906 29.8448 21.8247 28.887 21.1852C27.9293 20.5457 26.8285 20.1524 25.6823 20.0402C24.5362 19.9279 23.38 20.1002 22.3164 20.5417C21.2527 20.9832 20.3145 21.6803 19.5847 22.5712C18.855 23.4622 18.3563 24.5194 18.1329 25.6491C17.9096 26.7789 17.9684 27.9463 18.3042 29.0479C18.64 30.1495 19.2424 31.1513 20.058 31.9643L25 36.8003L29.95 31.9593C30.6024 31.3106 31.1195 30.5389 31.4714 29.6888C31.8233 28.8388 32.003 27.9273 32 27.0073ZM25 34.0003L21.464 30.5423C20.7651 29.8434 20.289 28.953 20.0959 27.9836C19.9028 27.0143 20.0013 26.0094 20.379 25.096C20.7568 24.1826 21.3968 23.4016 22.2181 22.8518C23.0395 22.3019 24.0054 22.0079 24.9939 22.0068C25.9823 22.0057 26.9489 22.2975 27.7715 22.8455C28.5941 23.3935 29.2359 24.173 29.6157 25.0855C29.9955 25.9981 30.0963 27.0027 29.9054 27.9725C29.7144 28.9424 29.2404 29.8338 28.543 30.5343L25 34.0003ZM25 24.0003C24.4067 24.0003 23.8266 24.1763 23.3333 24.5059C22.84 24.8356 22.4554 25.3041 22.2284 25.8523C22.0013 26.4005 21.9419 27.0037 22.0577 27.5856C22.1734 28.1675 22.4591 28.7021 22.8787 29.1216C23.2982 29.5412 23.8328 29.8269 24.4147 29.9427C24.9967 30.0584 25.5999 29.999 26.1481 29.772C26.6962 29.5449 27.1648 29.1604 27.4944 28.667C27.8241 28.1737 28 27.5937 28 27.0003C28 26.2047 27.6839 25.4416 27.1213 24.879C26.5587 24.3164 25.7957 24.0003 25 24.0003ZM37 23.0463V37.0003H27.653L29.7 35.0003H35V23.0433C35.0006 22.8915 34.9662 22.7416 34.8997 22.6051C34.8331 22.4687 34.736 22.3493 34.616 22.2563L25.616 15.2123C25.4401 15.0748 25.2233 15.0001 25 15.0001C24.7767 15.0001 24.5599 15.0748 24.384 15.2123L15.384 22.2543C15.2639 22.3477 15.1668 22.4674 15.1002 22.6042C15.0337 22.741 14.9994 22.8912 15 23.0433V35.0003H20.3L22.345 37.0003H13V23.0433C12.9988 22.5877 13.1019 22.1379 13.3014 21.7283C13.5009 21.3187 13.7915 20.9602 14.151 20.6803L23.151 13.6383C23.679 13.2247 24.3303 13 25.001 13C25.6717 13 26.323 13.2247 26.851 13.6383L35.851 20.6823C36.2101 20.962 36.5003 21.3203 36.6995 21.7295C36.8986 22.1388 37.0014 22.5882 37 23.0433V23.0463Z" fill="white"/>
</g>
<defs>
<clipPath id="clip0_1153_26466">
<rect width="24" height="24" fill="white" transform="translate(13 13)"/>
</clipPath>
</defs>
</svg>
