<svg width="17" height="16" viewBox="0 0 17 16" fill="none" xmlns="http://www.w3.org/2000/svg">
<path d="M16.159 2.08696C16.159 1.53346 15.9474 1.00264 15.5707 0.611255C15.1941 0.219875 14.6833 0 14.1506 0L2.10041 0C1.56776 0 1.05692 0.219875 0.680278 0.611255C0.303636 1.00264 0.092041 1.53346 0.092041 2.08696L0.092041 4.17391C0.0937841 4.68897 0.279922 5.18493 0.614217 5.56522C0.279922 5.94551 0.0937841 6.44146 0.092041 6.95652L0.092041 9.04348C0.0937841 9.55854 0.279922 10.0545 0.614217 10.4348C0.279922 10.8151 0.0937841 11.311 0.092041 11.8261L0.092041 16H16.159V11.8261C16.1572 11.311 15.9711 10.8151 15.6368 10.4348C15.9711 10.0545 16.1572 9.55854 16.159 9.04348V6.95652C16.1572 6.44146 15.9711 5.94551 15.6368 5.56522C15.9711 5.18493 16.1572 4.68897 16.159 4.17391V2.08696ZM1.43095 2.08696C1.43095 1.90246 1.50148 1.72552 1.62703 1.59506C1.75258 1.4646 1.92286 1.3913 2.10041 1.3913H3.43932V2.78261H4.77823V1.3913H6.11715V2.78261H7.45606V1.3913H14.1506C14.3282 1.3913 14.4984 1.4646 14.624 1.59506C14.7495 1.72552 14.8201 1.90246 14.8201 2.08696V4.17391C14.8201 4.35841 14.7495 4.53535 14.624 4.66581C14.4984 4.79627 14.3282 4.86957 14.1506 4.86957H2.10041C1.92286 4.86957 1.75258 4.79627 1.62703 4.66581C1.50148 4.53535 1.43095 4.35841 1.43095 4.17391V2.08696ZM14.8201 6.95652V9.04348C14.8201 9.22798 14.7495 9.40492 14.624 9.53538C14.4984 9.66584 14.3282 9.73913 14.1506 9.73913H2.10041C1.92286 9.73913 1.75258 9.66584 1.62703 9.53538C1.50148 9.40492 1.43095 9.22798 1.43095 9.04348V6.95652C1.43095 6.77202 1.50148 6.59508 1.62703 6.46462C1.75258 6.33416 1.92286 6.26087 2.10041 6.26087H3.43932V7.65217H4.77823V6.26087H6.11715V7.65217H7.45606V6.26087H14.1506C14.3282 6.26087 14.4984 6.33416 14.624 6.46462C14.7495 6.59508 14.8201 6.77202 14.8201 6.95652ZM14.8201 14.6087H1.43095V11.8261C1.43095 11.6416 1.50148 11.4646 1.62703 11.3342C1.75258 11.2037 1.92286 11.1304 2.10041 11.1304H3.43932V12.5217H4.77823V11.1304H6.11715V12.5217H7.45606V11.1304H14.1506C14.3282 11.1304 14.4984 11.2037 14.624 11.3342C14.7495 11.4646 14.8201 11.6416 14.8201 11.8261V14.6087Z" fill="#140802"/>
</svg>
