<svg width="51" height="50" viewBox="0 0 51 50" fill="none" xmlns="http://www.w3.org/2000/svg">
<rect x="0.5" width="50" height="50" rx="25" fill="#FE5F14" fill-opacity="0.25"/>
<g clip-path="url(#clip0_40_361)">
<path d="M19 30.0002C19.8284 30.0002 20.5 29.3287 20.5 28.5002C20.5 27.6718 19.8284 27.0002 19 27.0002C18.1716 27.0002 17.5 27.6718 17.5 28.5002C17.5 29.3287 18.1716 30.0002 19 30.0002Z" fill="#D54401"/>
<path d="M34.5 16H16.5C15.7044 16 14.9413 16.3161 14.3787 16.8787C13.8161 17.4413 13.5 18.2044 13.5 19V34H37.5V19C37.5 18.2044 37.1839 17.4413 36.6213 16.8787C36.0587 16.3161 35.2956 16 34.5 16ZM16.5 18H34.5C34.7652 18 35.0196 18.1054 35.2071 18.2929C35.3946 18.4804 35.5 18.7348 35.5 19V21H15.5V19C15.5 18.7348 15.6054 18.4804 15.7929 18.2929C15.9804 18.1054 16.2348 18 16.5 18ZM15.5 32V23H35.5V32H15.5Z" fill="#D54401"/>
</g>
<defs>
<clipPath id="clip0_40_361">
<rect width="24" height="24" fill="white" transform="translate(13.5 13)"/>
</clipPath>
</defs>
</svg>
