<svg width="20" height="20" viewBox="0 0 20 20" fill="none" xmlns="http://www.w3.org/2000/svg">
<g clip-path="url(#clip0_1512_29424)">
<path d="M20 10C20 15.5229 15.5229 20 10 20C8.02219 20 6.08879 19.4135 4.4443 18.3147C2.79981 17.2159 1.51809 15.6541 0.761209 13.8268C0.00433286 11.9996 -0.193701 9.98891 0.192152 8.0491C0.578004 6.10929 1.53041 4.32746 2.92894 2.92894C4.32746 1.53041 6.10929 0.578004 8.0491 0.192152C9.98891 -0.193701 11.9996 0.00433286 13.8268 0.761209C15.6541 1.51809 17.2159 2.79981 18.3147 4.4443C19.4135 6.08879 20 8.02219 20 10ZM10 1.66667C7.78987 1.66667 5.67025 2.54464 4.10745 4.10745C2.54464 5.67025 1.66667 7.78987 1.66667 10C1.66667 12.2101 2.54464 14.3298 4.10745 15.8926C5.67025 17.4554 7.78987 18.3333 10 18.3333C14.6024 18.3333 18.3333 14.6024 18.3333 10C18.3309 7.79061 17.4522 5.67241 15.8899 4.11013C14.3276 2.54785 12.2094 1.6691 10 1.66667ZM9.92376 13.6808C9.92394 13.6816 9.92485 13.6818 9.92539 13.6813L14.9922 8.67717C15.3189 8.35451 15.3228 7.8283 15.0009 7.50087C14.6783 7.17277 14.1507 7.16846 13.8228 7.49124L10.3047 10.9546C9.4383 11.8075 8.04879 11.8105 7.17875 10.9613L6.17938 9.98592C5.85005 9.66448 5.32261 9.67048 5.00067 9.99932C4.67821 10.3287 4.68401 10.8572 5.01363 11.1794L7.57084 13.6792C7.88321 13.9904 8.30617 14.1651 8.74709 14.1651C9.18743 14.1651 9.60986 13.9908 9.92212 13.6804C9.92265 13.6799 9.92357 13.6801 9.92376 13.6808Z" fill="#219542"/>
</g>
<defs>
<clipPath id="clip0_1512_29424">
<rect width="20" height="20" fill="white"/>
</clipPath>
</defs>
</svg>
