<svg width="17" height="15" viewBox="0 0 17 15" fill="none" xmlns="http://www.w3.org/2000/svg">
<path d="M14.8786 8.05019V7.04146C14.8786 5.35058 14.2069 3.72897 13.0113 2.53334C11.8157 1.33771 10.1941 0.666016 8.50318 0.666016C6.81231 0.666016 5.19069 1.33771 3.99507 2.53334C2.79944 3.72897 2.12775 5.35058 2.12775 7.04146V8.05019C1.38476 8.37735 0.776719 8.9498 0.4054 9.67172C0.0340813 10.3936 -0.0779717 11.2212 0.0879998 12.0159C0.253971 12.8106 0.687893 13.5241 1.31712 14.037C1.94635 14.55 2.73269 14.8312 3.54451 14.8337H4.96127V7.74984H3.54451V7.04146C3.54451 5.72633 4.06694 4.46507 4.99687 3.53514C5.9268 2.60521 7.18806 2.08278 8.50318 2.08278C9.81831 2.08278 11.0796 2.60521 12.0095 3.53514C12.9394 4.46507 13.4619 5.72633 13.4619 7.04146V7.74984H12.0451V13.4169H9.21157V14.8337H13.4619C14.2737 14.8312 15.06 14.55 15.6892 14.037C16.3185 13.5241 16.7524 12.8106 16.9184 12.0159C17.0843 11.2212 16.9723 10.3936 16.601 9.67172C16.2296 8.9498 15.6216 8.37735 14.8786 8.05019ZM3.54451 13.4169C2.98089 13.4169 2.44035 13.193 2.0418 12.7945C1.64326 12.3959 1.41936 11.8554 1.41936 11.2917C1.41936 10.7281 1.64326 10.1876 2.0418 9.78904C2.44035 9.3905 2.98089 9.1666 3.54451 9.1666V13.4169ZM13.4619 13.4169V9.1666C14.0255 9.1666 14.566 9.3905 14.9646 9.78904C15.3631 10.1876 15.587 10.7281 15.587 11.2917C15.587 11.8554 15.3631 12.3959 14.9646 12.7945C14.566 13.193 14.0255 13.4169 13.4619 13.4169Z" fill="#140802"/>
</svg>
