<svg width="16" height="16" viewBox="0 0 16 16" fill="none" xmlns="http://www.w3.org/2000/svg">
<g clip-path="url(#clip0_1512_29875)">
<path d="M8 0C6.03058 0.00595759 4.13219 0.73636 2.66667 2.052V0H1.33333V3.42867C1.33369 3.7569 1.46423 4.07158 1.69633 4.30368C1.92842 4.53577 2.2431 4.66631 2.57133 4.66667H6V3.33333H3.25267C4.33618 2.23571 5.76721 1.5484 7.30125 1.38882C8.8353 1.22924 10.3772 1.6073 11.6634 2.45841C12.9496 3.30952 13.9004 4.58085 14.3532 6.05519C14.8061 7.52953 14.733 9.11537 14.1463 10.5418C13.5597 11.9682 12.4959 13.1466 11.1368 13.8757C9.77768 14.6048 8.20757 14.8393 6.69472 14.5392C5.18188 14.2391 3.82019 13.423 2.84232 12.2303C1.86445 11.0376 1.33107 9.54232 1.33333 8H0C0 9.58225 0.469192 11.129 1.34824 12.4446C2.22729 13.7602 3.47672 14.7855 4.93853 15.391C6.40034 15.9965 8.00887 16.155 9.56072 15.8463C11.1126 15.5376 12.538 14.7757 13.6569 13.6569C14.7757 12.538 15.5376 11.1126 15.8463 9.56072C16.155 8.00887 15.9965 6.40034 15.391 4.93853C14.7855 3.47672 13.7602 2.22729 12.4446 1.34824C11.129 0.469192 9.58225 0 8 0V0Z" fill="#140802"/>
<path d="M7.33331 4.66602V8.27535L9.52864 10.4707L10.4713 9.52802L8.66664 7.72335V4.66602H7.33331Z" fill="#140802"/>
</g>
<defs>
<clipPath id="clip0_1512_29875">
<rect width="16" height="16" fill="white"/>
</clipPath>
</defs>
</svg>
