<svg width="25" height="25" viewBox="0 0 25 25" fill="none" xmlns="http://www.w3.org/2000/svg">
<path d="M22.5 6.30021C21.7483 6.6263 20.9534 6.84187 20.14 6.94021C20.9982 6.42753 21.6413 5.62099 21.95 4.67021C21.1436 5.15027 20.2608 5.48851 19.34 5.67021C18.7245 5.00278 17.905 4.55851 17.0098 4.40706C16.1146 4.25562 15.1945 4.40557 14.3938 4.8334C13.593 5.26123 12.9569 5.94274 12.5852 6.77105C12.2135 7.59935 12.1273 8.5276 12.34 9.41021C10.7094 9.32774 9.11444 8.90316 7.65865 8.16407C6.20287 7.42498 4.91885 6.3879 3.89 5.12021C3.52914 5.75038 3.33952 6.46403 3.34 7.19021C3.33872 7.86459 3.50422 8.52883 3.82176 9.12377C4.13929 9.71872 4.59902 10.2259 5.16 10.6002C4.50798 10.5825 3.86989 10.4075 3.3 10.0902V10.1402C3.30489 11.0851 3.63599 11.9993 4.23731 12.7282C4.83863 13.457 5.67326 13.9559 6.6 14.1402C6.24325 14.2488 5.87287 14.306 5.5 14.3102C5.24189 14.3072 4.98442 14.2838 4.73 14.2402C4.99391 15.053 5.50462 15.7634 6.19107 16.2724C6.87753 16.7814 7.70558 17.0638 8.56 17.0802C7.1172 18.2155 5.33588 18.8351 3.5 18.8402C3.16574 18.8413 2.83174 18.8213 2.5 18.7802C4.37443 19.9905 6.55881 20.6329 8.79 20.6302C10.3297 20.6462 11.8571 20.3552 13.2831 19.7743C14.7091 19.1934 16.005 18.3341 17.0952 17.2467C18.1854 16.1593 19.048 14.8656 19.6326 13.4411C20.2171 12.0166 20.512 10.4899 20.5 8.95021C20.5 8.78021 20.5 8.60021 20.5 8.42021C21.2847 7.83502 21.9615 7.11763 22.5 6.30021Z" fill="#121C44"/>
</svg>
