<svg width="25" height="17" viewBox="0 0 25 17" fill="none" xmlns="http://www.w3.org/2000/svg">
<g clip-path="url(#clip0_40_451)">
<path d="M16.4867 8.25448C14.2862 7.07852 12.1792 5.99741 10.0254 4.86865V11.6212C12.2918 10.3891 14.6807 9.26079 16.496 8.25448H16.4867Z" fill="white"/>
<path d="M16.4867 8.25448C14.2862 7.07852 10.0254 4.86865 10.0254 4.86865L15.7061 8.68683C15.7061 8.68683 14.6713 9.26079 16.4867 8.25448Z" fill="#121C44"/>
<path d="M10.4397 16.907C5.86901 16.8228 4.30789 16.7471 3.34834 16.5494C2.69914 16.4181 2.13498 16.1264 1.72132 15.7034C1.40162 15.3833 1.14737 14.8948 0.950118 14.2171C0.780916 13.6525 0.715016 13.1828 0.621064 12.0353C0.477242 9.44562 0.442956 7.32837 0.621064 4.96266C0.768003 3.65624 0.839246 2.10536 1.81528 1.20058C2.27613 0.777127 2.81223 0.504622 3.41424 0.391969C4.35465 0.213416 8.36118 0.0722656 12.5089 0.0722656C16.6472 0.0722656 20.6626 0.213416 21.6039 0.391969C22.356 0.533119 23.0613 0.956124 23.4754 1.50158C24.3659 2.9024 24.3815 4.64429 24.4719 6.00681C24.5093 6.65601 24.5093 10.3424 24.4719 10.9916C24.3312 13.1449 24.2181 13.9068 23.8984 14.6967C23.7007 15.1954 23.5319 15.4585 23.2398 15.7502C22.7817 16.199 22.1977 16.4975 21.5656 16.606C17.6103 16.9034 14.2516 16.968 10.4397 16.907ZM16.4967 8.25453C14.2962 7.07857 12.1892 5.98811 10.0354 4.85935V11.6123C12.3018 10.3802 14.6911 9.25149 16.506 8.24518L16.4967 8.25453Z" fill="#121C44"/>
</g>
<defs>
<clipPath id="clip0_40_451">
<rect width="24" height="16.8576" fill="white" transform="translate(0.5 0.0712891)"/>
</clipPath>
</defs>
</svg>
